{
	"asset":{
		"generator":"Khronos glTF Blender I/O v4.4.56",
		"version":"2.0"
	},
	"scene":0,
	"scenes":[
		{
			"name":"Scene",
			"nodes":[
				0,
				4,
				5,
				6,
				7,
				8,
				9
			]
		}
	],
	"nodes":[
		{
			"name":"Node_0",
			"rotation":[
				-0.70710688829422,
				0,
				0,
				0.7071066498756409
			]
		},
		{
			"mesh":0,
			"name":"Object_8"
		},
		{
			"mesh":1,
			"name":"Object_9"
		},
		{
			"children":[
				1,
				2
			],
			"name":"CornellBox-Original.obj.cleaner.materialmerger.gles"
		},
		{
			"children":[
				3
			],
			"name":"Sketchfab_model",
			"rotation":[
				-0.70710688829422,
				0,
				0,
				0.7071066498756409
			]
		},
		{
			"mesh":2,
			"name":"Cube",
			"translation":[
				0.0018711518496274948,
				0.9032933712005615,
				0
			]
		},
		{
			"mesh":3,
			"name":"Cube.001",
			"translation":[
				0.0018711518496274948,
				2.835723876953125,
				-1.9867273569107056
			]
		},
		{
			"mesh":4,
			"name":"Cube.002",
			"translation":[
				-1.9915351867675781,
				2.835723876953125,
				0
			]
		},
		{
			"mesh":5,
			"name":"Cube.004",
			"translation":[
				0.09904932975769043,
				2.835723876953125,
				0
			]
		},
		{
			"mesh":6,
			"name":"Cube.006",
			"translation":[
				0.0018711518496274948,
				2.835723876953125,
				0
			]
		}
	],
	"materials":[
		{
			"doubleSided":true,
			"name":"shortBox",
			"pbrMetallicRoughness":{
				"baseColorFactor":[
					0.7250000238418579,
					0.7099999785423279,
					0.6800000071525574,
					1
				],
				"metallicFactor":0
			}
		},
		{
			"doubleSided":true,
			"name":"tallBox",
			"pbrMetallicRoughness":{
				"baseColorFactor":[
					0.7250000238418579,
					0.7099999785423279,
					0.6800000071525574,
					1
				],
				"metallicFactor":0
			}
		}
	],
	"meshes":[
		{
			"name":"Object_6",
			"primitives":[
				{
					"attributes":{
						"POSITION":0,
						"NORMAL":1,
						"TEXCOORD_0":2,
						"TANGENT":3
					},
					"indices":4,
					"material":0
				}
			]
		},
		{
			"name":"Object_7",
			"primitives":[
				{
					"attributes":{
						"POSITION":5,
						"NORMAL":6,
						"TEXCOORD_0":7,
						"TANGENT":8
					},
					"indices":9,
					"material":1
				}
			]
		},
		{
			"name":"Cube.001",
			"primitives":[
				{
					"attributes":{
						"POSITION":10,
						"NORMAL":11,
						"TEXCOORD_0":12,
						"TANGENT":13
					},
					"indices":14
				}
			]
		},
		{
			"name":"Cube.002",
			"primitives":[
				{
					"attributes":{
						"POSITION":15,
						"NORMAL":16,
						"TEXCOORD_0":17,
						"TANGENT":18
					},
					"indices":19
				}
			]
		},
		{
			"name":"Cube.005",
			"primitives":[
				{
					"attributes":{
						"POSITION":20,
						"NORMAL":21,
						"TEXCOORD_0":22,
						"TANGENT":23
					},
					"indices":24
				}
			]
		},
		{
			"name":"Cube.006",
			"primitives":[
				{
					"attributes":{
						"POSITION":25,
						"NORMAL":26,
						"TEXCOORD_0":27,
						"TANGENT":28
					},
					"indices":24
				}
			]
		},
		{
			"name":"Cube.008",
			"primitives":[
				{
					"attributes":{
						"POSITION":29,
						"NORMAL":30,
						"TEXCOORD_0":31,
						"TANGENT":32
					},
					"indices":19
				}
			]
		}
	],
	"accessors":[
		{
			"bufferView":0,
			"componentType":5126,
			"count":30,
			"max":[
				0.699999988079071,
				0,
				0.6000000238418579
			],
			"min":[
				-0.05000000074505806,
				-0.75,
				0
			],
			"type":"VEC3"
		},
		{
			"bufferView":1,
			"componentType":5126,
			"count":30,
			"type":"VEC3"
		},
		{
			"bufferView":2,
			"componentType":5126,
			"count":30,
			"type":"VEC2"
		},
		{
			"bufferView":3,
			"componentType":5126,
			"count":30,
			"type":"VEC4"
		},
		{
			"bufferView":4,
			"componentType":5123,
			"count":30,
			"type":"SCALAR"
		},
		{
			"bufferView":5,
			"componentType":5126,
			"count":30,
			"max":[
				0.03999999910593033,
				0.6700000166893005,
				1.2000000476837158
			],
			"min":[
				-0.7099999785423279,
				-0.09000000357627869,
				0
			],
			"type":"VEC3"
		},
		{
			"bufferView":6,
			"componentType":5126,
			"count":30,
			"type":"VEC3"
		},
		{
			"bufferView":7,
			"componentType":5126,
			"count":30,
			"type":"VEC2"
		},
		{
			"bufferView":8,
			"componentType":5126,
			"count":30,
			"type":"VEC4"
		},
		{
			"bufferView":9,
			"componentType":5123,
			"count":30,
			"type":"SCALAR"
		},
		{
			"bufferView":10,
			"componentType":5126,
			"count":24,
			"max":[
				1,
				-0.8728131055831909,
				1
			],
			"min":[
				-1,
				-1,
				-1
			],
			"type":"VEC3"
		},
		{
			"bufferView":11,
			"componentType":5126,
			"count":24,
			"type":"VEC3"
		},
		{
			"bufferView":12,
			"componentType":5126,
			"count":24,
			"type":"VEC2"
		},
		{
			"bufferView":13,
			"componentType":5126,
			"count":24,
			"type":"VEC4"
		},
		{
			"bufferView":14,
			"componentType":5123,
			"count":36,
			"type":"SCALAR"
		},
		{
			"bufferView":15,
			"componentType":5126,
			"count":24,
			"max":[
				1.0894931554794312,
				-0.8788766860961914,
				1
			],
			"min":[
				-1.0810891389846802,
				-2.939056396484375,
				0.8232589960098267
			],
			"type":"VEC3"
		},
		{
			"bufferView":16,
			"componentType":5126,
			"count":24,
			"type":"VEC3"
		},
		{
			"bufferView":17,
			"componentType":5126,
			"count":24,
			"type":"VEC2"
		},
		{
			"bufferView":18,
			"componentType":5126,
			"count":24,
			"type":"VEC4"
		},
		{
			"bufferView":19,
			"componentType":5123,
			"count":36,
			"type":"SCALAR"
		},
		{
			"bufferView":20,
			"componentType":5126,
			"count":24,
			"max":[
				1,
				-0.8788766860961914,
				1
			],
			"min":[
				0.8892431855201721,
				-2.9378247261047363,
				-1.0062867403030396
			],
			"type":"VEC3"
		},
		{
			"bufferView":21,
			"componentType":5126,
			"count":24,
			"type":"VEC3"
		},
		{
			"bufferView":22,
			"componentType":5126,
			"count":24,
			"type":"VEC2"
		},
		{
			"bufferView":23,
			"componentType":5126,
			"count":24,
			"type":"VEC4"
		},
		{
			"bufferView":24,
			"componentType":5123,
			"count":36,
			"type":"SCALAR"
		},
		{
			"bufferView":25,
			"componentType":5126,
			"count":24,
			"max":[
				1,
				-0.8788766860961914,
				1
			],
			"min":[
				0.8892431855201721,
				-2.9378247261047363,
				-1.0062867403030396
			],
			"type":"VEC3"
		},
		{
			"bufferView":26,
			"componentType":5126,
			"count":24,
			"type":"VEC3"
		},
		{
			"bufferView":27,
			"componentType":5126,
			"count":24,
			"type":"VEC2"
		},
		{
			"bufferView":28,
			"componentType":5126,
			"count":24,
			"type":"VEC4"
		},
		{
			"bufferView":29,
			"componentType":5126,
			"count":24,
			"max":[
				1,
				-0.8788766860961914,
				1
			],
			"min":[
				-1,
				-1,
				-1
			],
			"type":"VEC3"
		},
		{
			"bufferView":30,
			"componentType":5126,
			"count":24,
			"type":"VEC3"
		},
		{
			"bufferView":31,
			"componentType":5126,
			"count":24,
			"type":"VEC2"
		},
		{
			"bufferView":32,
			"componentType":5126,
			"count":24,
			"type":"VEC4"
		}
	],
	"bufferViews":[
		{
			"buffer":0,
			"byteLength":360,
			"byteOffset":0,
			"target":34962
		},
		{
			"buffer":0,
			"byteLength":360,
			"byteOffset":360,
			"target":34962
		},
		{
			"buffer":0,
			"byteLength":240,
			"byteOffset":720,
			"target":34962
		},
		{
			"buffer":0,
			"byteLength":480,
			"byteOffset":960,
			"target":34962
		},
		{
			"buffer":0,
			"byteLength":60,
			"byteOffset":1440,
			"target":34963
		},
		{
			"buffer":0,
			"byteLength":360,
			"byteOffset":1500,
			"target":34962
		},
		{
			"buffer":0,
			"byteLength":360,
			"byteOffset":1860,
			"target":34962
		},
		{
			"buffer":0,
			"byteLength":240,
			"byteOffset":2220,
			"target":34962
		},
		{
			"buffer":0,
			"byteLength":480,
			"byteOffset":2460,
			"target":34962
		},
		{
			"buffer":0,
			"byteLength":60,
			"byteOffset":2940,
			"target":34963
		},
		{
			"buffer":0,
			"byteLength":288,
			"byteOffset":3000,
			"target":34962
		},
		{
			"buffer":0,
			"byteLength":288,
			"byteOffset":3288,
			"target":34962
		},
		{
			"buffer":0,
			"byteLength":192,
			"byteOffset":3576,
			"target":34962
		},
		{
			"buffer":0,
			"byteLength":384,
			"byteOffset":3768,
			"target":34962
		},
		{
			"buffer":0,
			"byteLength":72,
			"byteOffset":4152,
			"target":34963
		},
		{
			"buffer":0,
			"byteLength":288,
			"byteOffset":4224,
			"target":34962
		},
		{
			"buffer":0,
			"byteLength":288,
			"byteOffset":4512,
			"target":34962
		},
		{
			"buffer":0,
			"byteLength":192,
			"byteOffset":4800,
			"target":34962
		},
		{
			"buffer":0,
			"byteLength":384,
			"byteOffset":4992,
			"target":34962
		},
		{
			"buffer":0,
			"byteLength":72,
			"byteOffset":5376,
			"target":34963
		},
		{
			"buffer":0,
			"byteLength":288,
			"byteOffset":5448,
			"target":34962
		},
		{
			"buffer":0,
			"byteLength":288,
			"byteOffset":5736,
			"target":34962
		},
		{
			"buffer":0,
			"byteLength":192,
			"byteOffset":6024,
			"target":34962
		},
		{
			"buffer":0,
			"byteLength":384,
			"byteOffset":6216,
			"target":34962
		},
		{
			"buffer":0,
			"byteLength":72,
			"byteOffset":6600,
			"target":34963
		},
		{
			"buffer":0,
			"byteLength":288,
			"byteOffset":6672,
			"target":34962
		},
		{
			"buffer":0,
			"byteLength":288,
			"byteOffset":6960,
			"target":34962
		},
		{
			"buffer":0,
			"byteLength":192,
			"byteOffset":7248,
			"target":34962
		},
		{
			"buffer":0,
			"byteLength":384,
			"byteOffset":7440,
			"target":34962
		},
		{
			"buffer":0,
			"byteLength":288,
			"byteOffset":7824,
			"target":34962
		},
		{
			"buffer":0,
			"byteLength":288,
			"byteOffset":8112,
			"target":34962
		},
		{
			"buffer":0,
			"byteLength":192,
			"byteOffset":8400,
			"target":34962
		},
		{
			"buffer":0,
			"byteLength":384,
			"byteOffset":8592,
			"target":34962
		}
	],
	"buffers":[
		{
			"byteLength":8976,
			"uri":"Untitled.bin"
		}
	]
}
